Coordinates
version=1
nRows=8
nColumns=40
inDegrees=yes

Units are S.I. units (second, meters, Newtons, ...)
Angles are in degrees.

endheader
time	pelvis_tilt	pelvis_list	pelvis_rotation	pelvis_tx	pelvis_ty	pelvis_tz	hip_flexion_r	hip_adduction_r	hip_rotation_r	knee_angle_r	knee_angle_r_beta	ankle_angle_r	subtalar_angle_r	mtp_angle_r	hip_flexion_l	hip_adduction_l	hip_rotation_l	knee_angle_l	knee_angle_l_beta	ankle_angle_l	subtalar_angle_l	mtp_angle_l	lumbar_extension	lumbar_bending	lumbar_rotation	arm_flex_r	arm_add_r	arm_rot_r	elbow_flex_r	pro_sup_r	wrist_flex_r	wrist_dev_r	arm_flex_l	arm_add_l	arm_rot_l	elbow_flex_l	pro_sup_l	wrist_flex_l	wrist_dev_l
      0.00000000	      3.79056180	     -0.45632838	      2.48142354	     -1.65600807	      0.89402423	     -1.40250949	     -8.86642689	      4.19073617	     -8.80864044	    -18.71656147	     -0.32666562	     15.12898386	      3.37325713	     -9.00847581	     20.98893124	      4.63901765	     10.50193675	    -16.30524357	     -0.28458019	      0.37631881	     -1.79536345	     -7.10202042	    -11.84457337	      1.72003352	      6.22569755	     12.04200570	    -11.33758589	     24.68685066	     23.89619236	     89.95437384	      0.00000000	      0.00000000	     -4.31104669	      6.38491630	     -8.57302457	     13.65150924	     89.95437384	      0.00000000	      0.00000000
      0.01000000	      3.48219699	     -0.61878068	      2.15903256	     -1.64798853	      0.89283795	     -1.40415880	     -8.97058365	      4.17217849	     -8.52523794	    -18.96597704	     -0.33101875	     15.16089096	      3.41756572	     -9.03559804	     21.10957113	      4.67225891	     10.36614444	    -14.56156405	     -0.25414724	      0.25043225	     -2.39314618	     -7.09992270	    -11.69014218	      1.76150960	      6.19596773	     12.12306714	    -11.28356970	     24.72225140	     24.13240980	     89.95437384	      0.00000000	      0.00000000	     -4.52274932	      6.35551494	     -8.55979215	     13.27300925	     89.95437384	      0.00000000	      0.00000000
      0.02000000	      3.48051145	     -0.45636662	      1.68474398	     -1.63965246	      0.89224729	     -1.40585179	     -9.34770819	      3.72968707	     -8.26345720	    -19.41339974	     -0.33882774	     15.21683685	      3.36585959	     -9.07961187	     20.64234099	      4.43543711	     10.73227121	    -12.76771274	     -0.22283863	     -0.40468905	     -3.01883110	     -7.05935912	    -11.88131598	      1.44122174	      6.22963283	     12.20030140	    -11.21102155	     24.77864394	     24.38156472	     89.95437384	      0.00000000	      0.00000000	     -4.70331256	      6.34416501	     -8.79847282	     12.90485327	     89.95437384	      0.00000000	      0.00000000
      0.03000000	      3.20575494	     -0.61867852	      1.37566484	     -1.63128484	      0.89119720	     -1.40751960	     -9.42821655	      3.69806060	     -7.98448516	    -19.78794895	     -0.34536486	     15.11265790	      3.37030766	     -9.06650855	     20.69021114	      4.50140549	     10.50424996	    -11.72756052	     -0.20468454	     -0.34440820	     -3.56764343	     -7.09123362	    -11.73470400	      1.48177960	      6.16600265	     12.24271333	    -11.10457812	     24.75643921	     24.47768010	     89.95437384	      0.00000000	      0.00000000	     -4.91208731	      6.32613984	     -9.00643019	     12.60937766	     89.95437384	      0.00000000	      0.00000000
      0.04000000	      2.94681805	     -0.76679335	      1.14350726	     -1.62267153	      0.89021981	     -1.40943336	     -9.53186790	      3.64377837	     -7.76329513	    -20.18609437	     -0.35231381	     15.00373200	      3.31447736	     -9.01056234	     20.77672085	      4.54901368	     10.44672854	    -11.24112595	     -0.19619466	     -0.24222369	     -3.81378730	     -7.07674313	    -11.55938290	      1.54179499	      5.91485362	     12.23889682	    -10.96925757	     24.70733657	     24.62932738	     89.95437384	      0.00000000	      0.00000000	     -5.19826191	      6.30688476	     -9.17856102	     12.39077062	     89.95437384	      0.00000000	      0.00000000
      0.05000000	      2.69624380	     -0.80830762	      0.84237241	     -1.61383565	      0.88932211	     -1.41124931	     -9.61095390	      3.44149757	     -7.60578526	    -20.66953051	     -0.36075136	     14.67343414	      3.20703786	     -8.85197340	     20.96710373	      4.52348852	     10.17480069	    -11.53525920	     -0.20132825	     -0.31874389	     -3.80126096	     -6.95975009	    -11.40779915	      1.46015239	      5.80059322	     12.07995481	    -10.89625872	     24.61799029	     24.94363750	     89.95437384	      0.00000000	      0.00000000	     -5.55461829	      6.36304678	     -9.19420677	     12.53904967	     89.95437384	      0.00000000	      0.00000000
      0.06000000	      2.49555595	     -0.86222493	      0.42017378	     -1.60478644	      0.88873503	     -1.41314088	     -9.66424053	      3.25311128	     -6.96926804	    -21.31310117	     -0.37198379	     14.50385746	      3.13495631	     -8.80011468	     20.63332759	      4.46196465	      9.54202173	    -11.37971731	     -0.19861354	     -0.32365754	     -4.41148718	     -7.01770801	    -11.21480558	      1.42654357	      5.80762282	     12.10886112	    -10.72303245	     24.73535584	     24.60431539	     89.95437384	      0.00000000	      0.00000000	     -5.59499080	      6.28601387	     -9.65469736	     11.99178157	     89.95437384	      0.00000000	      0.00000000
      0.07000000	      2.20925192	     -0.86808733	      0.06380316	     -1.59532897	      0.88804698	     -1.41512620	     -9.67899192	      2.96820074	     -6.74520021	    -21.88686997	     -0.38199794	     14.07478028	      3.00072496	     -8.60438148	     20.58840643	      4.37162733	      9.18087121	    -12.04541446	     -0.21023214	     -0.55260635	     -4.31186592	     -6.86257753	    -10.94681607	      1.33903411	      5.73005872	     11.81017031	    -10.68163202	     24.64115665	     24.91526109	     89.95437384	      0.00000000	      0.00000000	     -5.98365288	      6.33974843	     -9.69648511	     12.24118690	     89.95437384	      0.00000000	      0.00000000
